name C:\Users\u0101727\Documents\MyRepositories\upper-imu-dc\Results\main_tracking\Case_48\ABD01_angularVelocities_groundFrame.mot
datacolumns 4
datarows 70
range 6.31000000 7.00000000
endheader 
time	radius_imu_x	radius_imu_y	radius_imu_z	
          6.31000000	         -0.53726518	          0.45599281	         -0.11679884	
          6.32000000	         -0.53753106	          0.45238292	         -0.12391976	
          6.33000000	         -0.53766044	          0.44799863	         -0.13034084	
          6.34000000	         -0.53756506	          0.44290359	         -0.13592530	
          6.35000000	         -0.53715430	          0.43718181	         -0.14054180	
          6.36000000	         -0.53633635	          0.43094290	         -0.14406429	
          6.37000000	         -0.53502105	          0.42432420	         -0.14637378	
          6.38000000	         -0.53312525	          0.41748653	         -0.14736332	
          6.39000000	         -0.53058102	          0.41060137	         -0.14694708	
          6.40000000	         -0.52734523	          0.40382955	         -0.14507265	
          6.41000000	         -0.52340762	          0.39729611	         -0.14173321	
          6.42000000	         -0.51879317	          0.39106879	         -0.13697449	
          6.43000000	         -0.51355710	          0.38514878	         -0.13089292	
          6.44000000	         -0.50777446	          0.37947772	         -0.12362486	
          6.45000000	         -0.50152906	          0.37395926	         -0.11533081	
          6.46000000	         -0.49490469	          0.36848841	         -0.10617989	
          6.47000000	         -0.48797971	          0.36298062	         -0.09633850	
          6.48000000	         -0.48082547	          0.35739351	         -0.08596557	
          6.49000000	         -0.47351004	          0.35173794	         -0.07521252	
          6.50000000	         -0.46610113	          0.34607826	         -0.06422845	
          6.51000000	         -0.45866831	          0.34052257	         -0.05316480	
          6.52000000	         -0.45128408	          0.33520864	         -0.04217520	
          6.53000000	         -0.44402084	          0.33029109	         -0.03141284	
          6.54000000	         -0.43694609	          0.32593130	         -0.02102542	
          6.55000000	         -0.43011675	          0.32229116	         -0.01114934	
          6.56000000	         -0.42357367	          0.31952979	         -0.00190460	
          6.57000000	         -0.41733762	          0.31780094	          0.00660829	
          6.58000000	         -0.41140761	          0.31724898	          0.01430903	
          6.59000000	         -0.40576159	          0.31800258	          0.02113623	
          6.60000000	         -0.40035924	          0.32016649	          0.02704561	
          6.61000000	         -0.39514649	          0.32381302	          0.03200899	
          6.62000000	         -0.39006082	          0.32897468	          0.03601436	
          6.63000000	         -0.38503653	          0.33563918	          0.03906674	
          6.64000000	         -0.38000894	          0.34374703	          0.04118918	
          6.65000000	         -0.37491721	          0.35319183	          0.04242360	
          6.66000000	         -0.36970617	          0.36382317	          0.04283109	
          6.67000000	         -0.36432723	          0.37545208	          0.04249162	
          6.68000000	         -0.35873861	          0.38785853	          0.04150261	
          6.69000000	         -0.35290528	          0.40080003	          0.03997624	
          6.70000000	         -0.34679865	          0.41402014	          0.03803514	
          6.71000000	         -0.34039654	          0.42725491	          0.03580647	
          6.72000000	         -0.33368296	          0.44023675	          0.03341481	
          6.73000000	         -0.32664707	          0.45269634	          0.03097498	
          6.74000000	         -0.31928061	          0.46436520	          0.02858632	
          6.75000000	         -0.31157464	          0.47498102	          0.02632907	
          6.76000000	         -0.30351764	          0.48429580	          0.02426257	
          6.77000000	         -0.29509603	          0.49208449	          0.02242418	
          6.78000000	         -0.28629694	          0.49815193	          0.02082841	
          6.79000000	         -0.27711207	          0.50233673	          0.01946675	
          6.80000000	         -0.26754187	          0.50451230	          0.01830876	
          6.81000000	         -0.25759965	          0.50458479	          0.01730556	
          6.82000000	         -0.24731461	          0.50248770	          0.01639568	
          6.83000000	         -0.23673265	          0.49817341	          0.01551293	
          6.84000000	         -0.22591377	          0.49160349	          0.01459495	
          6.85000000	         -0.21492628	          0.48274009	          0.01359103	
          6.86000000	         -0.20383930	          0.47154056	          0.01246738	
          6.87000000	         -0.19271558	          0.45795643	          0.01120909	
          6.88000000	         -0.18160607	          0.44193728	          0.00981841	
          6.89000000	         -0.17054764	          0.42343984	          0.00831056	
          6.90000000	         -0.15956369	          0.40244165	          0.00670866	
          6.91000000	         -0.14866662	          0.37895707	          0.00503950	
          6.92000000	         -0.13786029	          0.35305242	          0.00333114	
          6.93000000	         -0.12714219	          0.32485641	          0.00161150	
          6.94000000	         -0.11650530	          0.29456209	         -0.00009310	
          6.95000000	         -0.10593889	          0.26241814	         -0.00176015	
          6.96000000	         -0.09542706	          0.22870981	         -0.00337320	
          6.97000000	         -0.08494405	          0.19373360	         -0.00492291	
          6.98000000	         -0.07444767	          0.15777137	         -0.00640589	
          6.99000000	         -0.06387223	          0.12106938	         -0.00782085	
          7.00000000	         -0.05312230	          0.08382497	         -0.00916270	
